:SAMPLES-PER-SECOND 30
:FULLY-SPECIFIED
:DEGREES
356
root  13.0703 30.4389 -4.84935 -74.9423 -84.9978 63.3164
RightUpLeg  -28.7758 -2.28436 -29.2295
RightLeg  69.9503 0.197776 -0.212151
RightFoot  -19.9857 2.19233 30.1548
RightToes  -5.28226e-011 1.30204e-014 -6.03759e-014
Spine  35.1601 -0.608254 1.21367
Spine1  -4.83315 0.067602 -1.83189
HEad  -17.3566 11.7864 -10.666
LeftShoulder1  0.338422 2.03336 -16.4898
LeftArm  -25.0388 29.2886 -40.7958
LeftForeArm  -33.8888 -37.6833 -10.3426
LeftHand  -0.222725 4.50999 29.083
RightShoulder  0.881438 0.385265 15.9995
RightArm  -40.1273 -30.5347 53.2289
RightForeArm  -24.6227 58.8526 21.3739
RightHand  -1.48933 -0.469093 -34.324
LeftUpLeg  -15.8301 -3.77781 31.168
LeftLeg  52.8503 6.97986 10.2774
LeftFoot  -7.23704 1.16645 -32.4547
LeftToes  -2.75829e-010 5.07641e-011 -5.51782e-011
357
root  12.6999 31.9544 -5.43601 -54.9837 -80.2848 44.0565
RightUpLeg  -23.1508 -4.18597 -31.3287
RightLeg  63.9854 0.0309869 -0.537931
RightFoot  -18.4177 1.82488 30.8524
RightToes  -5.28226e-011 1.30204e-014 -6.03759e-014
Spine  35.3146 -0.477343 7.38298
Spine1  -7.94055 2.86789 -10.0433
HEad  -14.0217 -3.74871 -9.12052
LeftShoulder1  0.0778648 3.17425 -16.3499
LeftArm  -18.3698 25.6307 -43.4892
LeftForeArm  -32.4537 -41.132 -11.4891
LeftHand  -0.270428 4.31179 28.8927
RightShoulder  1.61097 2.99503 18.3666
RightArm  -37.8521 -39.6545 46.0658
RightForeArm  -34.643 41.9616 12.105
RightHand  -1.42913 -0.181596 -31.3643
LeftUpLeg  -18.971 3.28433 27.5498
LeftLeg  49.7445 9.74593 12.597
LeftFoot  11.0431 5.27719 -26.822
LeftToes  -2.75829e-010 5.07641e-011 -5.51782e-011
358
root  12.5077 33.5305 -5.79152 -43.8806 -75.649 32.8199
RightUpLeg  -15.8778 -6.05106 -32.6838
RightLeg  56.084 -0.121937 -0.601411
RightFoot  -15.413 1.06007 32.0597
RightToes  -5.28226e-011 1.30204e-014 -6.03759e-014
Spine  35.4953 0.299573 14.3813
Spine1  -8.90366 6.35641 -17.2931
HEad  -11.1711 -21.1746 -7.62855
LeftShoulder1  -0.153327 4.24308 -13.8036
LeftArm  -10.9057 18.0154 -50.0836
LeftForeArm  -32.0001 -35.6916 -9.6619
LeftHand  -0.31283 4.17663 29.6923
RightShoulder  2.09219 4.54864 19.5959
RightArm  -27.1999 -45.2306 38.8883
RightForeArm  -42.2709 19.3752 6.38246
RightHand  -1.53794 0.577173 -29.4936
LeftUpLeg  -23.9048 8.17454 24.5598
LeftLeg  49.2974 7.43966 9.5411
LeftFoot  24.6935 6.74723 -20.8655
LeftToes  -2.75829e-010 5.07641e-011 -5.51782e-011
359
root  12.3504 35.1971 -6.01274 -38.6266 -72.8512 27.8799
RightUpLeg  -9.82323 -7.76205 -32.8573
RightLeg  47.1484 -0.348953 -0.74153
RightFoot  -10.4747 -0.333906 33.4584
RightToes  -5.28226e-011 1.30204e-014 -6.03759e-014
Spine  34.8728 2.70141 19.1297
Spine1  -8.39433 10.4846 -21.2854
HEad  -9.35878 -33.8174 -7.40616
LeftShoulder1  -0.362189 5.52346 -10.7073
LeftArm  -10.7273 13.6652 -60.4831
LeftForeArm  -31.7877 -31.0978 -8.29221
LeftHand  -0.321485 4.18396 30.8061
RightShoulder  2.17936 4.38929 21.3472
RightArm  -18.9552 -49.42 31.8162
RightForeArm  -44.7909 7.0295 7.02318
RightHand  -1.47058 0.317139 -29.4866
LeftUpLeg  -29.3124 9.77746 22.8442
LeftLeg  52.2214 3.08072 4.71091
LeftFoot  28.9291 7.09676 -19.6896
LeftToes  -2.75829e-010 5.07641e-011 -5.51782e-011
360
root  12.226 36.9227 -6.0337 -36.3575 -72.3992 26.7354
RightUpLeg  -6.43627 -10.7965 -32.767
RightLeg  38.2981 0.693724 0.266133
RightFoot  -1.59205 -3.0007 34.098
RightToes  -5.28226e-011 1.30204e-014 -6.03759e-014
Spine  33.7572 5.30604 20.1656
Spine1  -8.04499 13.1019 -20.5395
HEad  -8.76211 -37.4954 -8.09363
LeftShoulder1  -0.629775 7.40731 -8.56158
LeftArm  -14.4786 15.9446 -68.6175
LeftForeArm  -32.804 -31.8748 -8.55898
LeftHand  -0.183517 4.71571 31.8945
RightShoulder  1.92339 3.47698 21.2691
RightArm  -19.0384 -51.4154 26.5821
RightForeArm  -42.3894 5.24309 5.54425
RightHand  -1.24502 -0.317876 -28.1081
LeftUpLeg  -33.6845 10.6887 22.5005
LeftLeg  56.5931 1.92289 3.73752
LeftFoot  27.2885 7.14842 -20.71
LeftToes  -2.75829e-010 5.07641e-011 -5.51782e-011
361
root  12.1694 38.6016 -5.89979 -35.3347 -73.236 27.0373
RightUpLeg  -4.78859 -15.1755 -32.8015
RightLeg  29.8695 3.16653 1.73104
RightFoot  11.5529 -6.98367 33.9297
RightToes  -5.28226e-011 1.30204e-014 -6.03759e-014
Spine  32.5841 6.74325 19.4301
Spine1  -8.32822 13.7092 -17.6981
HEad  -8.87846 -35.7758 -8.3533
LeftShoulder1  -0.809569 8.66619 -8.0534
LeftArm  -12.1186 19.9548 -70.7787
LeftForeArm  -34.9808 -32.809 -8.89751
LeftHand  -0.0275191 5.2729 32.2911
RightShoulder  1.89331 3.61481 20.2489
RightArm  -20.0662 -50.8845 21.6673
RightForeArm  -38.7994 7.82934 4.44378
RightHand  -1.07332 -0.646618 -26.0219
LeftUpLeg  -35.8908 11.8555 22.7525
LeftLeg  58.4225 3.29662 6.27388
LeftFoot  26.6893 7.13242 -20.9989
LeftToes  -2.75829e-010 5.07641e-011 -5.51782e-011
